<?xml version="1.0" encoding="utf-8"?>
<!-- Generator: Adobe Illustrator 23.1.0, SVG Export Plug-In . SVG Version: 6.00 Build 0)  -->
<svg version="1.1" id="Слой_1" xmlns="http://www.w3.org/2000/svg" xmlns:xlink="http://www.w3.org/1999/xlink" x="0px" y="0px"
	 viewBox="0 0 136.04 165.83" enable-background="new 0 0 136.04 165.83" xml:space="preserve">
<g>
	<path fill="#E41C5A" d="M131.56,78.52c-4.82,5.58-11.58,6.11-18.17,6.57c-13.54,0.95-20.36,7.62-20.1,21.19
		c0.04,2.03,3.59,3.99,5.52,5.99c2.59,6.78-0.5,10.92-7.7,10.83c-3.18-0.04-6.53,0.34-9.53,1.35c-5.01,1.69-6.62,6.54-4.39,11.29
		c0.22,0.47-0.29,1.29-0.47,1.95c-1.1-0.9-2.2-1.8-3.48-2.85c-1.77,1.71-3.19,3.09-4.38,4.24c2.88,3.22,5.47,6.13,7.5,8.4
		c2.33-1.45,4.14-2.58,6.74-4.2c-2.3-1.92-3.57-2.97-4.84-4.03c0.95,0.08,2.3-0.22,2.78,0.3c2.53,2.73,5.07,1.72,7.45,0.12
		c1.58-1.06,2.81-2.65,4.2-4.01c0.4,2.96,0.81,5.92,1.19,8.89c0.63,4.87,0.51,10.06,6.79,11.84c0.98,0.28,2.24,2.46,1.99,3.42
		c-0.26,1.01-2.07,2.12-3.33,2.32c-11.86,1.86-23.34,0.38-33.74-5.71c-4.36-2.55-8.26-1.76-13.81-1.44c3.86,2.21,6.62,3.6,9.15,5.34
		c0.95,0.65,2.12,2.4,1.83,3.08c-0.47,1.11-2.06,2.47-3.15,2.45c-5.63-0.09-11.27-0.38-16.87-1.02c-2.94-0.33-5.81-1.4-8.65-2.35
		c-12.22-4.07-12.76-4.81-13.36-17.21c-3.64,0.35-7.6,1.74-10.82,0.74c-3.26-1.01-6.59-3.88-8.46-6.85
		c-2.99-4.75-1.05-11.35,3.26-14.85c5.38-4.38,10.58-3.81,18.99,2.15c2.25-4.81,4.22-9.74,6.78-14.35
		c7.84-14.07,19.29-24.93,31.64-34.97c6.2-5.04,12.35-10.14,18.41-15.34c1.59-1.36,2.76-3.22,3.53-5.82
		c-1.58,0.59-3.15,1.25-4.75,1.76c-13.6,4.32-27.14,8.87-40.86,12.77c-4.03,1.15-8.62,0.87-12.89,0.54
		c-4.59-0.35-8.39-2.44-9.09-7.68c-0.65-4.82,2.21-7.91,6.23-9.03c6.67-1.85,13.53-3.3,20.4-4.01c6.38-0.66,12.88-0.14,19.33-0.14
		c0.14-0.42,0.27-0.83,0.41-1.25c-1.31-0.58-2.6-1.18-3.92-1.73c-12.27-5.09-24.75-9.72-36.71-15.45
		c-5.24-2.51-9.76-6.88-13.95-11.07c-3.9-3.91-4.83-9.11-2.33-14.34c2.52-5.25,7.39-7.15,12.54-6.02
		c7.56,1.66,15.22,3.67,22.23,6.87c18.73,8.52,35.26,20.68,51.74,32.86c2.56,1.89,5.74,3.26,8.84,4.03
		c9.02,2.22,17.57,5.2,24.27,11.99c4.34,4.4,7.23,9.52,7.36,15.89C129.44,73.52,129.13,75.74,131.56,78.52z"/>
	<path fill="#F8F5F6" d="M92.69,135.65c-1.39,1.35-2.62,2.94-4.2,4.01c-2.38,1.6-4.92,2.61-7.45-0.12
		c-0.48-0.51-1.83-0.22-2.76-0.29c-0.51-0.52-1.03-1.05-1.55-1.57c0.17-0.66,0.69-1.48,0.47-1.95c-2.22-4.75-0.61-9.6,4.39-11.29
		c3-1.01,6.35-1.39,9.53-1.35c7.2,0.09,10.29-4.05,7.7-10.83c1.25-1.29,3.14-2.39,3.61-3.92c1.16-3.76,3.08-5.85,7.17-6.45
		c1.47-0.21,3.14-2.33,3.84-3.95c1.8-4.15,4.64-6.46,9.15-6.15c0.86,0.06,2.23,1.54,2.32,2.47c0.42,4.59-2.06,7.22-6.12,9.14
		c-1.73,0.82-2.74,3.16-4.11,4.78c-1.61,1.9-3.27,3.77-4.91,5.64c-1.95,2.23-3.95,4.41-5.87,6.67c-1.61,1.91-2.73,4.82-4.75,5.66
		C94.63,128.04,92.6,130.96,92.69,135.65z"/>
	<path fill="#F2E9EC" d="M131.56,78.52c-2.44-2.78-2.12-5,1.34-6.58c1.04,1.26,2.09,2.52,3.13,3.78
		C134.55,76.65,133.06,77.58,131.56,78.52z"/>
	<path fill="#FDF7F9" d="M76.72,137.67c0.52,0.53,1.04,1.05,1.55,1.57c1.26,1.05,2.53,2.1,4.83,4.02c-2.61,1.62-4.41,2.75-6.74,4.2
		c-2.03-2.27-4.62-5.17-7.5-8.4c1.19-1.15,2.61-2.53,4.38-4.24C74.52,135.87,75.62,136.77,76.72,137.67z"/>
</g>
</svg>
