<?xml version="1.0" encoding="utf-8"?>
<!-- Generator: Adobe Illustrator 23.1.0, SVG Export Plug-In . SVG Version: 6.00 Build 0)  -->
<svg version="1.1" id="Слой_1" xmlns="http://www.w3.org/2000/svg" xmlns:xlink="http://www.w3.org/1999/xlink" x="0px" y="0px"
	 viewBox="0 0 150 30" style="enable-background:new 0 0 150 30;" xml:space="preserve">
<style type="text/css">
	.st0{opacity:0.5;fill:#40B0A6;enable-background:new    ;}
	.st1{fill:#40B0A6;}
	.st2{font-family:'MyriadPro-Regular';}
	.st3{font-size:10px;}
	.st4{fill:#40B0A6;stroke:#40B0A6;stroke-width:0.25;}
</style>
<path class="st0" d="M28.8,3h1.1v24h-1.1V3z"/>
<text transform="matrix(1 0 0 1 38.1126 18.8995)" class="st1 st2 st3">A FAN OF HORNY FUN</text>
<g>
	<path class="st4" d="M17.2,15.2l-0.8,1.1l-0.8-1.1c-0.1-0.1-0.3-0.1-0.4,0l-0.8,1.1l-0.8-1.1c-0.1-0.1-0.3-0.1-0.4,0l-0.8,1.1
		l-0.8-1.1c-0.1-0.1-0.2-0.1-0.3-0.1c-0.1,0.1-0.1,0.2-0.1,0.3l1,1.4c0.1,0.1,0.3,0.1,0.4,0l0.8-1.1l0.8,1.1c0.1,0.1,0.3,0.1,0.4,0
		l0.8-1.1l0.8,1.1c0,0.1,0.1,0.1,0.2,0.1s0.2,0,0.2-0.1l1-1.4c0.1-0.1,0-0.3-0.1-0.3C17.5,15.1,17.3,15.1,17.2,15.2z M13.1,14
		c0.7,0,1.2-0.5,1.2-1.2s-0.5-1.2-1.2-1.2s-1.2,0.5-1.2,1.2S12.5,14,13.1,14z M13.1,12c0.4,0,0.7,0.3,0.7,0.7s-0.3,0.7-0.7,0.7
		s-0.7-0.3-0.7-0.7C12.4,12.4,12.8,12,13.1,12z M16.2,14c0.7,0,1.2-0.5,1.2-1.2s-0.5-1.2-1.2-1.2c-0.7,0-1.2,0.5-1.2,1.2
		S15.6,14,16.2,14z M16.2,12c0.4,0,0.7,0.3,0.7,0.7s-0.3,0.7-0.7,0.7c-0.4,0-0.7-0.3-0.7-0.7C15.5,12.4,15.8,12,16.2,12z"/>
	<path class="st4" d="M14.6,8c-3,0-5.5,2.5-5.5,5.5v8.1c0,0.1,0.1,0.2,0.1,0.2c0.1,0,0.2,0,0.3-0.1l1-1l1.2,1.2
		c0.1,0.1,0.2,0.1,0.3,0l1.2-1.2l1.2,1.2c0.1,0.1,0.2,0.1,0.3,0l1.2-1.2l1.2,1.2c0,0,0.1,0.1,0.2,0.1s0.1,0,0.2-0.1l1.2-1.2l0.8,0.8
		c0.1,0.1,0.2,0.1,0.3,0.1c0.1,0,0.1-0.1,0.1-0.2v-7.9C20,10.5,17.6,8,14.6,8z M19.6,20.8L19,20.2c-0.1-0.1-0.2-0.1-0.3,0l-1.2,1.2
		l-1.2-1.2c0,0-0.1-0.1-0.2-0.1c-0.1,0-0.1,0-0.2,0.1l-1.2,1.2l-1.2-1.2c-0.1-0.1-0.2-0.1-0.3,0L12,21.4l-1.2-1.2
		c-0.1-0.1-0.2-0.1-0.3,0L9.6,21v-7.5c0-2.8,2.2-5,5-5s5,2.2,5,5V20.8z"/>
</g>
</svg>
