<?xml version="1.0" encoding="utf-8"?>
<!-- Generator: Adobe Illustrator 23.1.0, SVG Export Plug-In . SVG Version: 6.00 Build 0)  -->
<svg version="1.1" id="Слой_1" xmlns="http://www.w3.org/2000/svg" xmlns:xlink="http://www.w3.org/1999/xlink" x="0px" y="0px"
	 viewBox="0 0 150 30" style="enable-background:new 0 0 150 30;" xml:space="preserve">
<style type="text/css">
	.st0{opacity:0.5;fill:#6795C3;enable-background:new    ;}
	.st1{fill:#6795C3;}
	.st2{font-family:'MyriadPro-Regular';}
	.st3{font-size:12px;}
</style>
<path class="st0" d="M28.8,3h1.1v24h-1.1V3z"/>
<text transform="matrix(1 0 0 1 38.1127 19.4216)" class="st1 st2 st3">HORNY FUN LOVER!</text>
<path class="st1" d="M21.2,16.1h-0.4v-0.2c0-0.6-0.5-1.1-1.1-1.1H19v-1.5c0-1-0.8-1.9-1.9-1.9h-3.5v-0.8c0.5-0.2,0.9-0.7,0.9-1.2
	c0-0.7-0.6-1.3-1.3-1.3c-0.7,0-1.3,0.6-1.3,1.3c0,0.6,0.4,1.1,0.9,1.2v0.9H9.3c-1,0-1.9,0.8-1.9,1.9v1.5H6.7c-0.6,0-1.1,0.5-1.1,1.1
	v0.2H5.2c-0.2,0-0.4,0.2-0.4,0.4C4.8,16.8,5,17,5.2,17h0.4v0.2c0,0.6,0.5,1.1,1.1,1.1h0.7v1.5c0,1,0.8,1.9,1.9,1.9h7.8
	c1,0,1.9-0.8,1.9-1.9v-1.5h0.7c0.6,0,1.1-0.5,1.1-1.1V17h0.4c0.2,0,0.4-0.2,0.4-0.4C21.6,16.3,21.4,16.1,21.2,16.1z M7.5,17.4H6.7
	c-0.2,0-0.4-0.2-0.4-0.4v-1.1c0-0.2,0.2-0.4,0.4-0.4h0.7v1.9H7.5z M12.7,9.4c0-0.3,0.2-0.6,0.6-0.6s0.6,0.2,0.6,0.6
	c0,0.4-0.2,0.6-0.6,0.6S12.7,9.7,12.7,9.4z M18.2,19.6c0,0.6-0.5,1.1-1.1,1.1H9.3c-0.6,0-1.1-0.5-1.1-1.1v-6.3
	c0-0.6,0.5-1.1,1.1-1.1h7.8c0.6,0,1.1,0.5,1.1,1.1C18.2,13.3,18.2,19.6,18.2,19.6z M20.1,17c0,0.2-0.2,0.4-0.4,0.4H19v-1.9h0.7
	c0.2,0,0.4,0.2,0.4,0.4V17z M12.7,15c0-0.9-0.7-1.7-1.7-1.7c-0.9,0-1.7,0.7-1.7,1.7c0,0.9,0.7,1.7,1.7,1.7
	C11.9,16.7,12.7,15.9,12.7,15z M11,15.9c-0.5,0-0.9-0.4-0.9-0.9s0.4-0.9,0.9-0.9s0.9,0.4,0.9,0.9S11.5,15.9,11,15.9z M15.5,13.3
	c-0.9,0-1.7,0.7-1.7,1.7c0,0.9,0.7,1.7,1.7,1.7c0.9,0,1.7-0.7,1.7-1.7C17.1,14.1,16.4,13.3,15.5,13.3z M15.5,15.9
	c-0.5,0-0.9-0.4-0.9-0.9s0.4-0.9,0.9-0.9c0.5,0,0.9,0.4,0.9,0.9S16,15.9,15.5,15.9z M15.1,19.3c0,0.2-0.2,0.4-0.4,0.4h-3
	c-0.2,0-0.4-0.2-0.4-0.4c0-0.2,0.2-0.4,0.4-0.4h3C14.9,18.9,15.1,19.1,15.1,19.3z M12.9,17.4V17c0-0.2,0.2-0.4,0.4-0.4
	s0.4,0.2,0.4,0.4v0.4c0,0.2-0.2,0.4-0.4,0.4C13.1,17.8,12.9,17.6,12.9,17.4z"/>
</svg>
