<?xml version="1.0" encoding="utf-8"?>
<!-- Generator: Adobe Illustrator 23.1.0, SVG Export Plug-In . SVG Version: 6.00 Build 0)  -->
<svg version="1.1" id="Слой_1" xmlns="http://www.w3.org/2000/svg" xmlns:xlink="http://www.w3.org/1999/xlink" x="0px" y="0px"
	 viewBox="0 0 150 30" style="enable-background:new 0 0 150 30;" xml:space="preserve">
<style type="text/css">
	.st0{opacity:0.5;fill:#40CDDF;enable-background:new    ;}
	.st1{fill:#40CDDF;}
	.st2{font-family:'MyriadPro-Regular';}
	.st3{font-size:12px;}
	.st4{fill:none;stroke:#40CDDF;stroke-linecap:round;stroke-linejoin:round;}
	.st5{fill:none;stroke:#40CDDF;stroke-miterlimit:10;}
</style>
<path class="st0" d="M28.8,3h1.1v24h-1.1V3z"/>
<text transform="matrix(1 0 0 1 38.1127 19.4216)" class="st1 st2 st3">HORNY NEWBIE</text>
<g>
	<path class="st4" d="M17.2,11.6c-0.1,1.6-1.3,2.9-2.7,2.9c-1.3,0-2.5-1.3-2.7-2.9c-0.1-1.7,1.1-2.9,2.7-2.9S17.3,10,17.2,11.6z"/>
	<path class="st5" d="M14.5,16.5c-2.6,0-5.3,1.5-5.8,4.2c0,0.3,0.1,0.6,0.5,0.6h10.6c0.3,0,0.5-0.3,0.5-0.6
		C19.8,17.9,17.1,16.5,14.5,16.5z"/>
	<path class="st4" d="M8.5,12.6V16 M10.2,14.3H6.8"/>
</g>
</svg>
