<?xml version="1.0" encoding="utf-8"?>
<!-- Generator: Adobe Illustrator 23.1.0, SVG Export Plug-In . SVG Version: 6.00 Build 0)  -->
<svg version="1.1" id="Слой_1" xmlns="http://www.w3.org/2000/svg" xmlns:xlink="http://www.w3.org/1999/xlink" x="0px" y="0px"
	 viewBox="0 0 156 30" style="enable-background:new 0 0 156 30;" xml:space="preserve">
<style type="text/css">
	.st0{opacity:0.5;fill:#6666CC;enable-background:new    ;}
	.st1{fill:#6666CC;}
	.st2{font-family:'MyriadPro-Regular';}
	.st3{font-size:8px;}
	.st4{fill:none;stroke:#6666CC;stroke-miterlimit:10;}
</style>
<path class="st0" d="M28.4,3h1.1v24h-1.1V3z"/>
<text transform="matrix(1 0 0 1 33.5848 17.9947)" class="st1 st2 st3">THE HORNY FAN OF DIRTY FUN!</text>
<g>
	<path class="st4" d="M15.9,15.2l-1.2-3.1c0-0.1-0.1-0.2-0.2-0.2s-0.2,0.1-0.2,0.2l0,0l-1.2,3.1c0,0.1-0.1,0.1-0.1,0.1l0,0l-3.1,1.2
		c-0.1,0-0.2,0.1-0.2,0.2s0.1,0.2,0.2,0.2l0,0l3.1,1.2c0.1,0,0.1,0.1,0.1,0.1l0,0l1.2,3.1c0,0.1,0.1,0.2,0.2,0.2s0.2-0.1,0.2-0.2
		l0,0l1.2-3.1c0-0.1,0.1-0.1,0.1-0.1l0,0l3.1-1.2c0.1,0,0.2-0.1,0.2-0.2s-0.1-0.2-0.2-0.2l0,0L16,15.3C16,15.3,15.9,15.3,15.9,15.2
		L15.9,15.2z M11.8,9.9l-0.5-1.4l-0.6,1.4l-1.4,0.6l1.4,0.5l0.5,1.4l0.5-1.4l1.4-0.5C13.1,10.5,11.8,9.9,11.8,9.9z M20.4,11.2
		l-0.7-1.9L19,11.2l-1.9,0.7l1.9,0.7l0.7,1.9l0.7-1.9l1.9-0.7L20.4,11.2z"/>
</g>
</svg>
